<?xml version="1.0" ?><svg data-name="Layer 2" id="Layer_2" viewBox="0 0 2050 2050" xmlns="http://www.w3.org/2000/svg"><defs><style>.cls-1{fill:#46a1f8;}.cls-2{fill:#3084d6;}.cls-3{fill:#c8c2e9;}.cls-4{fill:#231f20;opacity:0.2;}.cls-5{fill:#f4c23f;}.cls-6{fill:#4d4c78;}.cls-7{fill:#323150;}.cls-8{fill:#f8881b;}.cls-9{fill:#67baeb;}.cls-10{fill:#fad564;}.cls-11{fill:#dfdafd;}</style></defs><title/><polygon class="cls-1" points="136.2 1621.8 241.6 1443.7 1836.3 1452.8 1913.8 1621.8 136.2 1621.8"/><path class="cls-2" d="M745.1,1446.6l-503.5-2.9-41.9,70.8c78-5.7,430.6-23.3,629.6,107.3H983C938.5,1575.6,859,1504.5,745.1,1446.6Z"/><path class="cls-2" d="M1220.7,1621.8c219.1-143.8,624.7-108,644.4-106.1l-28.8-62.9-537.5-3.1c-110.7,57.4-188.2,126.7-231.8,172.1Z"/><polygon class="cls-3" points="707.1 905.3 241.6 1305.1 1025 1621.8 1025 988.7 707.1 905.3"/><polygon class="cls-3" points="1342.9 905.3 1025 988.7 1025 1621.8 1808.4 1305.1 1342.9 905.3"/><polygon class="cls-4" points="1067 977.7 1027.5 988.1 1025 1626 1155.2 1569.1 1067 977.7"/><polygon class="cls-4" points="1005 983.5 1025 988.7 1025 1621.8 894.8 1569.1 1005 983.5"/><path class="cls-5" d="M1300.3,699.1c0-152.9-124.7-276.7-277.9-275.3S748,550.5,749.7,702.4a274.2,274.2,0,0,0,70.7,180.9c56.3,62.5,88.2,143.2,88.2,227.4v.5h232.8v-.5a336.4,336.4,0,0,1,87.3-226.4A274.3,274.3,0,0,0,1300.3,699.1Z"/><path class="cls-6" d="M907.9,1110.7h234.1a0,0,0,0,1,0,0v98.6A117.1,117.1,0,0,1,1025,1326.3h0a117.1,117.1,0,0,1-117.1-117.1v-98.6a0,0,0,0,1,0,0Z"/><polygon class="cls-7" points="1142.1 1193.5 1142.1 1193.5 1142.1 1153.5 1142.1 1153.5 907.9 1153.5 907.9 1193.5 1142.1 1193.5"/><path class="cls-8" d="M1025,321a20,20,0,0,1-20-20V191a20,20,0,0,1,40,0V301A20,20,0,0,1,1025,321Z"/><path class="cls-8" d="M746,436.6a20.2,20.2,0,0,1-14.2-5.9L654.1,353a20,20,0,0,1,28.3-28.3l77.7,77.8A20,20,0,0,1,746,436.6Z"/><path class="cls-8" d="M1304,436.6a20.2,20.2,0,0,0,14.2-5.9l77.7-77.7a20,20,0,0,0-28.3-28.3l-77.7,77.8a20,20,0,0,0,14.1,34.1Z"/><path class="cls-8" d="M630.4,715.6h-110a20,20,0,0,1,0-40h110a20,20,0,0,1,0,40Z"/><path class="cls-8" d="M1529.6,715.6h-110a20,20,0,0,1,0-40h110a20,20,0,0,1,0,40Z"/><rect class="cls-7" height="76.21" width="273" x="888.5" y="1621.8"/><rect class="cls-9" height="76.21" width="752.4" x="136.2" y="1621.8"/><rect class="cls-9" height="76.21" transform="translate(3075.3 3319.8) rotate(-180)" width="752.4" x="1161.5" y="1621.8"/><path class="cls-6" d="M1025,1621.8s-266-364-783.4-316.7l-57.5,162.4s505.9-49.9,704.4,154.3Z"/><path class="cls-6" d="M1025,1621.8s266-364,783.4-316.7l57.5,162.4s-505.9-49.9-704.4,154.3Z"/><path class="cls-10" d="M1022.4,423.8c-96,.9-180.2,51.3-228.8,126.6,7.3,214,174.3,387.5,385.6,405.1a330.4,330.4,0,0,1,49.5-71.2,274.3,274.3,0,0,0,71.6-185.2C1300.3,546.2,1175.6,422.4,1022.4,423.8Z"/><rect class="cls-11" height="208.31" rx="32.6" ry="32.6" transform="translate(-290.7 1421.9) rotate(-48.4)" width="65.1" x="1404" y="930.2"/></svg>