<svg viewBox="0 0 48 48" xmlns="http://www.w3.org/2000/svg" xmlns:xlink="http://www.w3.org/1999/xlink" width="48" height="48">
<defs>



 <path fill="#8b41d1" id="i-423" d="M5,29h20.414l-8-8H5V29z M7,23h9.586l4,4H7V23z M24,0C10.766,0,0,10.766,0,24c0,13.232,10.766,24,24,24 c13.233,0,24-10.768,24-24C48,10.766,37.233,0,24,0z M24,46C11.869,46,2,36.131,2,24c0-5.734,2.208-10.963,5.815-14.883 l31.067,31.066C34.963,43.791,29.735,46,24,46z M40.185,38.883L9.117,7.814C13.037,4.207,18.265,2,24,2c12.131,0,22,9.869,22,22 C46,29.734,43.792,34.963,40.185,38.883z M32.586,29H43v-8H24.586L32.586,29z M40,23h1v4h-1V23z M37,23h1v4h-1V23z M35,27h-1.586 l-4-4H35V27z M32.123,8.076h2c0,2.588,1.476,3.404,3.883,4.52c2.28,1.057,5.117,2.371,5.117,6.48h-2 c0-2.695-1.504-3.529-3.959-4.666C34.919,13.369,32.123,12.074,32.123,8.076z M29.518,5.654c0.219-0.615,0.443-1.244,0.655-1.889 l1.9,0.623c-0.218,0.662-0.448,1.309-0.672,1.938c-1.883,5.273-3.019,8.457,6.068,11.813l-0.693,1.877 C25.835,15.973,27.623,10.961,29.518,5.654z"/> 
</defs>

<use x="0" y="0" xlink:href="#i-423"/>

</svg>