<svg height="512" viewBox="0 0 60 60" width="512" xmlns="http://www.w3.org/2000/svg"><g id="Page-1" fill="none" fill-rule="evenodd"><g id="015---Email" fill="rgb(0,0,0)" fill-rule="nonzero" transform="translate(0 -1)"><path id="Shape" d="m31.2383 34.99c-2.2415644-.0103981-4.4685165-.3615784-6.6045-1.0415-3.4128423-1.1417755-5.9477395-4.0310188-6.6358-7.5634-.7529-3.6265.6192-7.461 3.7637-10.52.3374-.3286.688-.6433667 1.0518-.9443 3.2196288-2.6954608 7.5602996-3.6321929 11.605-2.5044 3.9157536 1.2498134 6.6214551 4.8283567 6.7568 8.9365.1466146 2.3647451-.6241352 4.6949748-2.1519 6.5059-1.1783023 1.4842706-3.0874488 2.185355-4.9463 1.8164-.7602176-.1577458-1.4234762-.6181385-1.8371-1.2752-.3711287-.6382278-.4663065-1.4000836-.2636-2.11.8745-3.3056 1.7636-8.3291 1.7724-8.38.0621106-.3519066.3072431-.6439461.6430585-.76611s.7112953-.0558927.985.17385c.2737048.2297427.4040521.5880534.3419415.93996-.0371.209-.9126 5.1572-1.8086 8.5435-.063952.1876506-.0478957.3933459.0444.5688.1382799.191343.3469169.3199065.58.3574 1.1379287.1899234 2.2873612-.2665919 2.9849-1.1855 1.1864016-1.4193487 1.780845-3.2409596 1.66-5.0869-.0977844-3.2700176-2.242135-6.124934-5.3554-7.13-3.3983056-.9347035-7.0389503-.1361935-9.7341 2.135-.3213.2667-.6338.5459-.9336.8379-1.5546 1.5122-4.0371 4.65-3.2006 8.68.5620337 2.8154834 2.5728764 5.1228675 5.2851 6.0645 4.69 1.4961 11.4292 1.6762 14.98-2.7388.3488575-.4201425.9702584-.4827231 1.3958849-.1405779s.4980618.9624746.1627151 1.3934779c-2.6257 3.2653-6.6213 4.4335-10.5412 4.4335z"/><path id="Shape" d="m27.8149 29.8052c-1.0570282.0181646-2.0880311-.3284577-2.9194-.9815-1.9194-1.5361-1.9722-4.2046-1.4341-6.0219.1812165-.6052113.4245444-1.1900564.7261-1.7452.7503224-1.5138869 1.9500705-2.7589691 3.4351-3.5649 1.8493462-.9596056 4.1088442-.5957076 5.5634.896.7216241.7908253 1.2651883 1.727263 1.594 2.7461.1741403.5170195-.0982507 1.0782018-.6121886 1.2612366-.513938.1830348-1.0797365-.0796331-1.2716114-.5903366-.2370831-.7527039-.6311586-1.4465454-1.1562-2.0357-.8480317-.8672392-2.1694059-1.0645586-3.2338-.4829-1.1136951.6280705-2.0087091 1.5816703-2.565 2.7329-.2337738.431336-.4225991.8855555-.5635 1.3555-.3886 1.3145-.3032 3.03.7691 3.8887 1.1723.9414 3.15.5434 4.2627-.4165.829232-.746533 1.5417334-1.6132856 2.1137-2.5713.1852213-.3103564.5234962-.4966162.8847981-.4871844.3613019.0094317.6893982.213087.8581746.5326844.1687764.3195975.1519648.7053954-.0439727 1.0091-.6774817 1.1288507-1.5209182 2.1493684-2.502 3.0273-1.0934765.9226171-2.4746572 1.4346934-3.9053 1.4479z"/><path id="Shape" d="m57 61h-54c-1.65610033-.0018187-2.99818129-1.3438997-3-3v-37c.00001572-.3877788.22421679-.7405895.57528314-.9052857s.76569921-.1115825 1.06391686.1362857l24.5371 20.3925c2.2201734 1.8335597 5.4293979 1.8329723 7.6489-.0014l24.5348-20.3911c.2981965-.248376.7131706-.3017925 1.0645472-.1370311.3513766.1647613.5756955.5179438.5754528.9060311v37c-.0018187 1.6561003-1.3438997 2.9981813-3 3zm-55-37.8687v34.8687c.00071619.5519878.44801218.9992838 1 1h54c.5520791-.0004962.9995038-.4479209 1-1v-34.8687l-22.8979 19.03c-2.9606327 2.446724-7.241348 2.4473534-10.2027.0015z"/><path id="Shape" d="m1.001 22c-.4355701.0003953-.82129491-.2811908-.95363398-.6961701-.13233908-.4149794.01915201-.8678864.37453398-1.1197299l9-6.38c.45059523-.3122969 1.0686272-.2035665 1.3855809.2437653s.2146394 1.0664583-.2293809 1.3880347l-9 6.38c-.16852428.1199208-.37026338.1842773-.5771.1841z"/><path id="Shape" d="m58.999 22c-.2068366.0001773-.4085757-.0641792-.5771-.1841l-9-6.38c-.4440203-.3215764-.5463346-.9407029-.2293809-1.3880347s.9349857-.5560622 1.3855809-.2437653l9 6.38c.355382.2518435.5068731.7047505.374534 1.1197299-.1323391.4149793-.5180639.6965654-.953634.6961701z"/><path id="Shape" d="m39.2393 8c-.2070115.00010935-.4089216-.06423486-.5777-.1841l-4.78-3.39c-2.2188862-1.87501472-5.4612857-1.89454674-7.7026-.0464l-4.84 3.4365c-.291493.20671388-.6711242.24221572-.9958901.09313231-.324766-.1490834-.5453271-.46010273-.5786-.81590001-.033273-.35579728.1257971-.70231843.4172901-.9090323l4.78-3.39c2.9536144-2.41503467 7.2051289-2.39582552 10.1368.0458l4.72 3.3438c.3556854.25178052.5073677.70490665.3749428 1.12008029s-.5184618.69678741-.9542428.69611971z"/><path id="Shape" d="m1.65 60.46c-.42143186.0003675-.79786247-.263514-.94122905-.6598105-.14336657-.3962966-.02289448-.8399405.30122905-1.1092895l22.82-18.96c.2742111-.2331685.6525759-.3009793.9906961-.1775532.3381203.1234261.5838207.4190432.643333.7740327.0595122.3549896-.0763472.7145733-.3557291.9415205l-22.82 18.96c-.17916597.149357-.40504487.2311377-.6383.2311z"/><path id="Shape" d="m58.3486 60.46c-.2330738.0001375-.4587858-.0816243-.6377-.231l-22.82-18.96c-.2793819-.2269472-.4152413-.5865309-.3557291-.9415205.0595123-.3549895.3052127-.6506066.643333-.7740327.3381202-.1234261.716485-.0556153.9906961.1775532l22.8194 18.96c.3241235.269349.4445956.7129929.301229 1.1092895-.1433665.3962965-.5197971.660178-.941229.6598105z"/><path id="Shape" d="m50 29.48c-.5522847 0-1-.4477153-1-1v-20.4722c-.0029.021-.043-.0073-.11-.0078h-37.78c-.0442022-.00271479-.0875817.01282953-.12.043l.01 20.437c0 .5522847-.4477153 1-1 1-.55228475 0-1-.4477153-1-1v-20.48c.03226085-1.13410356.97579439-2.02844815 2.11-2h37.78c1.134163-.02833724 2.0776307.86594492 2.11 2v20.48c0 .5522847-.4477153 1-1 1z"/></g></g></svg>