<svg height="512pt" viewBox="-14 0 512 512" width="512pt" xmlns="http://www.w3.org/2000/svg"><g fill-rule="evenodd"><path d="m480.425781 216.160156c-2.351562-1.898437-5.433593-2.632812-8.382812-2l-152.617188 32.652344-17.117187-3.660156 45.164062-90.464844c.074219-.148438.144532-.296875.210938-.445312 6.0625-13.800782 9.136718-28.484376 9.136718-43.648438 0-59.878906-48.710937-108.59375-108.589843-108.59375-59.878907 0-108.59375 48.714844-108.59375 108.59375 0 15.164062 3.074219 29.847656 9.140625 43.648438.066406.148437.132812.296874.207031.445312l32.234375 64.554688-14.414062-3.082032c-.132813-.03125-.269532-.042968-.40625-.0625-.195313-.035156-.386719-.070312-.582032-.09375-.179687-.019531-.355468-.023437-.53125-.035156-.195312-.011719-.386718-.027344-.578125-.027344-.183593 0-.363281.015625-.546875.023438-.1875.011718-.375.019531-.558594.039062-.191406.023438-.378906.058594-.566406.089844-.140625.023438-.277344.035156-.417968.0625l-154.710938 33.105469c-4.609375.984375-7.90625 5.0625-7.90625 9.777343v82.480469c0 5.523438 4.476562 10 10 10s10-4.476562 10-10v-74.394531l134.710938-28.820312v224.507812l-134.710938 28.820312v-70.113281c0-5.523437-4.476562-10-10-10s-10 4.476563-10 10v82.480469c0 3.019531 1.363281 5.878906 3.710938 7.773438 1.796874 1.453124 4.019531 2.226562 6.289062 2.226562.695312 0 1.398438-.074219 2.09375-.222656l152.617188-32.652344 152.621093 32.652344c.054688.011718.109375.019531.164063.027344.222656.042968.445312.078124.667968.105468.101563.011719.199219.027344.300782.039063.316406.03125.636718.050781.960937.050781.320313 0 .640625-.019531.957031-.050781.101563-.011719.203126-.027344.300782-.039063.222656-.027344.445312-.0625.664062-.105468.054688-.011719.113282-.015626.167969-.027344l154.710937-33.101563c4.613282-.988281 7.910157-5.0625 7.910157-9.777343v-82.480469c0-5.523438-4.476563-10-10-10-5.523438 0-10 4.476562-10 10v74.390625l-134.710938 28.824218v-224.507812l134.710938-28.820312v70.113281c0 5.523437 4.476562 10 10 10 5.523437 0 10-4.476563 10-10v-82.480469c0-3.019531-1.363281-5.875-3.710938-7.777344zm-320.789062-107.566406c0-48.851562 39.742187-88.59375 88.59375-88.59375 48.851562 0 88.59375 39.742188 88.59375 88.59375 0 12.296875-2.476563 24.199219-7.355469 35.382812l-81.238281 162.714844-81.238281-162.714844c-4.882813-11.183593-7.355469-23.085937-7.355469-35.382812zm15.074219 127.710938 17.9375 3.835937 46.636718 93.402344c1.691406 3.390625 5.15625 5.535156 8.945313 5.535156 3.789062 0 7.253906-2.144531 8.949219-5.535156l35.902343-71.914063 16.34375 3.496094v224.507812l-134.710937-28.824218v-224.503906zm0 0"/><path d="m312.53125 108.59375c0-35.457031-28.84375-64.304688-64.300781-64.304688s-64.304688 28.847657-64.304688 64.304688 28.847657 64.300781 64.304688 64.300781 64.300781-28.84375 64.300781-64.300781zm-108.605469 0c0-24.429688 19.875-44.304688 44.304688-44.304688 24.429687 0 44.304687 19.875 44.304687 44.304688 0 24.425781-19.875 44.300781-44.304687 44.300781-24.429688 0-44.304688-19.875-44.304688-44.300781zm0 0"/><path d="m10 389.519531c5.507812 0 10-4.492187 10-10 0-5.507812-4.492188-10-10-10s-10 4.492188-10 10c0 5.507813 4.492188 10 10 10zm0 0"/><path d="m474.136719 336.417969c-5.507813 0-10 4.492187-10 10 0 5.507812 4.492187 10 10 10 5.507812 0 10-4.492188 10-10 0-5.507813-4.492188-10-10-10zm0 0"/></g></svg>