<?xml version="1.0" ?><svg viewBox="0 0 512 512" xmlns="http://www.w3.org/2000/svg"><defs><style>.cls-1{fill:#5ca4cc;}.cls-2{fill:#338dbf;}.cls-3{fill:#dfdfdf;}.cls-4{fill:#cbe2ef;}.cls-5{fill:#fda5a3;}.cls-6{fill:#f9dbdb;}.cls-7{fill:#00b378;}.cls-8{fill:#00a16c;}.cls-9{fill:#bebebe;}.cls-10{fill:#4e8cae;}.cls-11{fill:#2c78a3;}.cls-12{fill:#d78d8b;}.cls-13{fill:#096;}.cls-14{fill:#00895c;}.cls-15{fill:#a2a2a2;}.cls-16{fill:#8c8c8c;}</style></defs><title/><g data-name="/ FLAT" id="_FLAT"><path class="cls-1" d="M304,24H208a16.00008,16.00008,0,0,0-16,16v96H320V40A16.00008,16.00008,0,0,0,304,24Z"/><path class="cls-2" d="M176,136v16a16.00008,16.00008,0,0,0,16,16H320a16.00008,16.00008,0,0,0,16-16V136Z"/><path class="cls-3" d="M403.78223,109.62939A207.55263,207.55263,0,0,0,340.7373,65.98486l6.5254-14.60937a223.475,223.475,0,0,1,67.88671,46.99414Z"/><path class="cls-3" d="M59.834,186.666l-15.08593-5.332A225.163,225.163,0,0,1,164.7373,51.37549l6.5254,14.60937A209.08546,209.08546,0,0,0,59.834,186.666Z"/><path class="cls-3" d="M98.37012,415.1499A225.3589,225.3589,0,0,1,44.74805,330.666L59.834,325.334a209.26491,209.26491,0,0,0,49.7959,78.44873Z"/><path class="cls-3" d="M430.03027,397.041,417.60645,386.96a208.94865,208.94865,0,0,0,20.74511-30.81738l14.01758,7.71484A225.05732,225.05732,0,0,1,430.03027,397.041Z"/><path class="cls-4" d="M244.4376,57.35705l25.5778,17.05186a8,8,0,0,1,0,13.31281l-25.5778,17.05186A8,8,0,0,1,232,98.11718V64.01345A8,8,0,0,1,244.4376,57.35705Z"/><circle class="cls-5" cx="272" cy="256" r="56"/><polygon class="cls-6" points="253.657 285.657 242.343 274.343 264 252.687 264 224 280 224 280 259.313 253.657 285.657"/><rect class="cls-7" height="96" rx="16" width="48" x="24" y="208"/><rect class="cls-8" height="32" width="56" x="72" y="240"/><rect class="cls-7" height="96" rx="16" width="48" x="128" y="208"/><path class="cls-2" d="M96,440a16,16,0,0,0-16,16h0a16.00008,16.00008,0,0,0,16,16h80V440Z"/><rect class="cls-4" height="16" width="16" x="248" y="360"/><rect class="cls-4" height="16" width="16" x="160" y="352"/><rect class="cls-4" height="16" width="16" x="168" y="400"/><rect class="cls-4" height="16" width="16" x="192" y="368"/><rect class="cls-4" height="16" width="16" x="216" y="392"/><rect class="cls-4" height="16" width="16" x="216" y="344"/><rect class="cls-4" height="16" width="16" x="264" y="400"/><path class="cls-9" d="M384,272l6.248,49.98462A16.00012,16.00012,0,0,0,406.12451,336h35.751A16.00012,16.00012,0,0,0,457.752,321.98462L464,272Z"/><rect class="cls-8" height="56" width="16" x="416" y="216"/><path class="cls-7" d="M488,176h0a57.94108,57.94108,0,0,0-40.97053,16.97055l-6.0589,6.0589A57.94108,57.94108,0,0,0,424,240v0h0a57.94108,57.94108,0,0,0,40.97053-16.97055l6.0589-6.0589A57.94108,57.94108,0,0,0,488,176Z"/><path class="cls-7" d="M360,176h0a57.94108,57.94108,0,0,1,40.97053,16.97055l6.0589,6.0589A57.94108,57.94108,0,0,1,424,240v0h0a57.94108,57.94108,0,0,1-40.97053-16.97055l-6.0589-6.0589A57.94108,57.94108,0,0,1,360,176Z"/><rect class="cls-1" height="16.00003" transform="translate(162.08411 465.40548) rotate(-66.03822)" width="43.77253" x="417.22507" y="99.99998"/><rect class="cls-1" height="16.00003" transform="translate(110.2626 473.6656) rotate(-66.03822)" width="17.50917" x="410.80108" y="143.99998"/><path class="cls-2" d="M299.31371,356.68629l25.37258-25.37258a16,16,0,0,1,22.62742,0l16,16A16,16,0,0,1,368,358.62742V376l68,68a16.97055,16.97055,0,0,1,0,24l0,0a16.97055,16.97055,0,0,1-24,0l-68-68H326.62742a16,16,0,0,1-11.31371-4.68629l-16-16A16,16,0,0,1,299.31371,356.68629Z"/><rect class="cls-1" height="16.00003" transform="translate(185.83902 501.95815) rotate(-66.03822)" width="43.77253" x="457.22507" y="99.99998"/><rect class="cls-1" height="16.00003" transform="translate(134.01752 510.21826) rotate(-66.03822)" width="17.50917" x="450.80108" y="143.99998"/><path class="cls-1" d="M200,488H312a32,32,0,0,0,32-32V440H168v16A32,32,0,0,0,200,488Z"/><path class="cls-10" d="M282.50146,136H320V90.02344A144.59478,144.59478,0,0,1,282.50146,136Z"/><path class="cls-11" d="M192,168H320a16.00008,16.00008,0,0,0,16-16V136H282.50146A143.38654,143.38654,0,0,1,192,168Z"/><path class="cls-12" d="M248.99976,307.05566a55.99441,55.99441,0,0,0,74.0559-74.05578A112.252,112.252,0,0,1,248.99976,307.05566Z"/><path class="cls-13" d="M34.207,302.90186A15.9304,15.9304,0,0,0,40,304H56a16.00008,16.00008,0,0,0,16-16V256A48.0099,48.0099,0,0,1,34.207,302.90186Z"/><path class="cls-13" d="M138.207,302.90186A15.9304,15.9304,0,0,0,144,304h16a16.00008,16.00008,0,0,0,16-16V256A48.0099,48.0099,0,0,1,138.207,302.90186Z"/><path class="cls-14" d="M96,272h32V240A32,32,0,0,1,96,272Z"/><path class="cls-15" d="M401.60181,335.34363a15.9737,15.9737,0,0,0,4.5227.65637h35.751A16.00012,16.00012,0,0,0,457.752,321.98462L464,272h-.45288A72.01059,72.01059,0,0,1,401.60181,335.34363Z"/><rect class="cls-16" height="16" width="96" x="376" y="264"/><path class="cls-11" d="M390.80518,446.8053,412,468a16.97056,16.97056,0,0,0,24-24l-21.19458-21.19458A152.89507,152.89507,0,0,1,390.80518,446.8053Z"/><path class="cls-10" d="M256,488h56a32,32,0,0,0,32-32V440h-9.59619A87.99543,87.99543,0,0,1,256,488Z"/></g></svg>