<svg height="512" viewBox="0 0 60 60" width="512" xmlns="http://www.w3.org/2000/svg"><path d="M31.238 33.99a22.112 22.112 0 01-6.604-1.042 9.99 9.99 0 01-6.636-7.563c-.753-3.626.62-7.46 3.764-10.52a17.43 17.43 0 011.052-.944 12.746 12.746 0 0111.605-2.505 9.717 9.717 0 016.756 8.937 9.206 9.206 0 01-2.152 6.506 5.058 5.058 0 01-4.946 1.816A2.857 2.857 0 0132.24 27.4a2.715 2.715 0 01-.264-2.11c.875-3.306 1.764-8.33 1.773-8.38a1 1 0 111.97.348c-.037.209-.913 5.157-1.809 8.543a.722.722 0 00.045.569.89.89 0 00.58.357 3.106 3.106 0 002.985-1.185 7.198 7.198 0 001.66-5.087 7.735 7.735 0 00-5.356-7.13 10.701 10.701 0 00-9.734 2.135 16.09 16.09 0 00-.934.838c-1.554 1.512-4.037 4.65-3.2 8.68a8.098 8.098 0 005.285 6.064c4.69 1.496 11.43 1.677 14.98-2.738a1 1 0 011.559 1.252c-2.626 3.266-6.622 4.434-10.542 4.434z"/><path d="M27.815 28.805a4.598 4.598 0 01-2.92-.981c-1.919-1.536-1.972-4.205-1.434-6.022.182-.605.425-1.19.727-1.745a8.198 8.198 0 013.435-3.565 4.729 4.729 0 015.563.896 7.484 7.484 0 011.594 2.746 1 1 0 01-1.884.67 5.579 5.579 0 00-1.156-2.035 2.707 2.707 0 00-3.234-.483 6.269 6.269 0 00-2.565 2.733 7.16 7.16 0 00-.563 1.356c-.389 1.314-.303 3.03.769 3.888 1.172.942 3.15.544 4.263-.416a11.152 11.152 0 002.113-2.572 1 1 0 111.7 1.055 13.128 13.128 0 01-2.503 3.027 6.144 6.144 0 01-3.905 1.448z"/><path d="M57 60H3a3.003 3.003 0 01-3-3V20a1 1 0 011.64-.769l24.536 20.392a6.005 6.005 0 007.65 0L58.36 19.23A1 1 0 0160 20v37a3.003 3.003 0 01-3 3zM2 22.131V57a1 1 0 001 1h54a1 1 0 001-1V22.131l-22.898 19.03a8.01 8.01 0 01-10.203.002z"/><path d="M1.001 21a1 1 0 01-.58-1.816l9-6.38a1 1 0 011.157 1.632l-9 6.38a.994.994 0 01-.577.184zm57.998 0a.994.994 0 01-.577-.184l-9-6.38a1 1 0 011.156-1.632l9 6.38A1 1 0 0159 21zM39.24 7a.997.997 0 01-.578-.184l-4.78-3.39a6.01 6.01 0 00-7.703-.047l-4.84 3.437a1 1 0 11-1.157-1.632l4.78-3.39a7.963 7.963 0 0110.137.046l4.72 3.344A1 1 0 0139.239 7zM1.65 59.46a1 1 0 01-.64-1.77l22.82-18.96a1 1 0 111.278 1.539l-22.82 18.96a.997.997 0 01-.638.231zm56.699 0a.994.994 0 01-.638-.231l-22.82-18.96a1 1 0 111.278-1.538l22.82 18.96a1 1 0 01-.64 1.77z"/><path d="M50 28.48a1 1 0 01-1-1V7.008c-.003.02-.043-.008-.11-.008H11.11a.162.162 0 00-.12.043L11 27.48a1 1 0 01-2 0V7a2.06 2.06 0 012.11-2h37.78A2.06 2.06 0 0151 7v20.48a1 1 0 01-1 1z"/></svg>