<svg height="512pt" viewBox="-14 0 512 512" width="512pt" xmlns="http://www.w3.org/2000/svg"><g fill-rule="evenodd"><path d="M480.426 216.16a10.007 10.007 0 00-8.383-2l-152.617 32.653-17.117-3.66 45.164-90.465c.074-.149.144-.297.21-.446 6.063-13.8 9.137-28.484 9.137-43.648C356.82 48.714 308.11 0 248.23 0c-59.878 0-108.593 48.715-108.593 108.594 0 15.164 3.074 29.847 9.14 43.648.067.149.133.297.207.446l32.235 64.554-14.414-3.082c-.133-.031-.27-.043-.407-.062a9.652 9.652 0 00-.582-.094c-.18-.02-.355-.024-.53-.035-.196-.012-.388-.028-.579-.028-.184 0-.363.016-.547.024-.187.012-.375.02-.558.039-.192.023-.38.059-.567.09-.14.023-.277.035-.418.062L7.907 247.262A10 10 0 000 257.039v82.48c0 5.524 4.477 10 10 10s10-4.476 10-10v-74.394l134.71-28.82v224.507L20 489.632V419.52c0-5.524-4.477-10-10-10s-10 4.476-10 10V502a9.999 9.999 0 0012.094 9.777l152.617-32.652 152.621 32.652c.055.012.11.02.164.028.223.043.445.078.668.105.102.012.2.027.3.04.317.03.638.05.962.05.32 0 .64-.02.957-.05l.3-.04a9.2 9.2 0 00.665-.105c.054-.012.113-.016.168-.028l154.71-33.101a10.002 10.002 0 007.91-9.778v-82.48c0-5.523-4.476-10-10-10-5.523 0-10 4.477-10 10v74.39l-134.71 28.825V265.125l134.71-28.82v70.113c0 5.523 4.477 10 10 10 5.524 0 10-4.477 10-10v-82.48a10.01 10.01 0 00-3.71-7.778zm-320.79-107.566C159.637 59.742 199.38 20 248.23 20c48.852 0 88.594 39.742 88.594 88.594 0 12.297-2.476 24.199-7.355 35.383L248.23 306.69l-81.238-162.714c-4.883-11.184-7.355-23.086-7.355-35.383zm15.075 127.71l17.937 3.837 46.637 93.402a9.999 9.999 0 0017.895 0l35.902-71.914 16.344 3.496v224.508l-134.711-28.824V236.305zm0 0"/><path d="M312.531 108.594c0-35.457-28.844-64.305-64.3-64.305s-64.305 28.848-64.305 64.305 28.847 64.3 64.304 64.3 64.301-28.843 64.301-64.3zm-108.605 0c0-24.43 19.875-44.305 44.304-44.305 24.43 0 44.305 19.875 44.305 44.305 0 24.426-19.875 44.3-44.305 44.3s-44.304-19.874-44.304-44.3zM10 389.52c5.508 0 10-4.493 10-10 0-5.508-4.492-10-10-10s-10 4.492-10 10c0 5.507 4.492 10 10 10zm464.137-53.102c-5.508 0-10 4.492-10 10s4.492 10 10 10 10-4.492 10-10-4.492-10-10-10zm0 0"/></g></svg>