<svg data-name="Layer 2" id="Layer_2" viewBox="0 0 2050 2050" xmlns="http://www.w3.org/2000/svg"><defs><style>.cls-6{fill:#4d4c78}.cls-7{fill:#323150}.cls-9{fill:#67baeb}</style></defs><path fill="#46a1f8" d="M136.2 1621.8l105.4-178.1 1594.7 9.1 77.5 169H136.2z"/><path d="M745.1 1446.6l-503.5-2.9-41.9 70.8c78-5.7 430.6-23.3 629.6 107.3H983c-44.5-46.2-124-117.3-237.9-175.2zm475.6 175.2c219.1-143.8 624.7-108 644.4-106.1l-28.8-62.9-537.5-3.1c-110.7 57.4-188.2 126.7-231.8 172.1z" fill="#3084d6"/><path d="M707.1 905.3l-465.5 399.8 783.4 316.7V988.7l-317.9-83.4zm635.8 0L1025 988.7v633.1l783.4-316.7-465.5-399.8z" fill="#c8c2e9"/><path d="M1067 977.7l-39.5 10.4-2.5 637.9 130.2-56.9-88.2-591.4zm-62 5.8l20 5.2v633.1l-130.2-52.7L1005 983.5z" fill="#231f20" opacity=".2"/><path d="M1300.3 699.1c0-152.9-124.7-276.7-277.9-275.3S748 550.5 749.7 702.4a274.2 274.2 0 0070.7 180.9c56.3 62.5 88.2 143.2 88.2 227.4v.5h232.8v-.5a336.4 336.4 0 0187.3-226.4 274.3 274.3 0 0071.6-185.2z" fill="#f4c23f"/><path class="cls-6" d="M907.9 1110.7H1142v98.6a117.1 117.1 0 01-117 117 117.1 117.1 0 01-117.1-117.1v-98.6z"/><path class="cls-7" d="M1142.1 1193.5v-40H907.9v40h234.2z"/><path d="M1025 321a20 20 0 01-20-20V191a20 20 0 0140 0v110a20 20 0 01-20 20zM746 436.6a20.2 20.2 0 01-14.2-5.9L654.1 353a20 20 0 0128.3-28.3l77.7 77.8a20 20 0 01-14.1 34.1zm558 0a20.2 20.2 0 0014.2-5.9l77.7-77.7a20 20 0 00-28.3-28.3l-77.7 77.8a20 20 0 0014.1 34.1zm-673.6 279h-110a20 20 0 010-40h110a20 20 0 010 40zm899.2 0h-110a20 20 0 010-40h110a20 20 0 010 40z" fill="#f8881b"/><path class="cls-7" d="M888.5 1621.8h273v76.21h-273z"/><path class="cls-9" d="M136.2 1621.8h752.4v76.21H136.2z"/><path class="cls-9" transform="rotate(-180 1537.65 1659.9)" d="M1161.5 1621.8h752.4v76.21h-752.4z"/><path class="cls-6" d="M1025 1621.8s-266-364-783.4-316.7l-57.5 162.4s505.9-49.9 704.4 154.3zm0 0s266-364 783.4-316.7l57.5 162.4s-505.9-49.9-704.4 154.3z"/><path d="M1022.4 423.8c-96 .9-180.2 51.3-228.8 126.6 7.3 214 174.3 387.5 385.6 405.1a330.4 330.4 0 0149.5-71.2 274.3 274.3 0 0071.6-185.2c0-152.9-124.7-276.7-277.9-275.3z" fill="#fad564"/><rect height="208.31" rx="32.6" ry="32.6" transform="rotate(-48.4 1436.585 1034.368)" width="65.1" x="1404" y="930.2" fill="#dfdafd"/></svg>